<svg id="Group_27" data-name="Group 27" xmlns="http://www.w3.org/2000/svg" viewBox="0 0 172.059 180.377">
  <g id="Group_1" data-name="Group 1" transform="translate(172.059 0) rotate(90)">
    <path id="Path_1" data-name="Path 1" d="M180.377,82.231q0,38.052-25.008,63.933-25.035,25.867-64.82,25.895-39.549,0-65.014-26.117Q.042,119.826,0,82.731A96.6,96.6,0,0,1,5.517,49.156C9.2,39.147,14,31.052,20.017,24.9A90.073,90.073,0,0,1,38.593,9.981a66.857,66.857,0,0,1,19.74-7.818L69.811,38.537a40.57,40.57,0,0,0-10.12,3.909,49.442,49.442,0,0,0-10.23,7.569,35.144,35.144,0,0,0-8.567,13.446,53.3,53.3,0,0,0-3.272,19.269q0,19.5,13.751,34.406,13.849,14.888,39.175,14.888,23.455,0,37.317-14.639a49.118,49.118,0,0,0,13.918-35.155c0-13.336-3.3-23.677-10.009-31-6.626-7.319-14.14-12.116-22.429-14.389L119.826,0a76.846,76.846,0,0,1,19.768,7.929,90.981,90.981,0,0,1,19.3,14.888q9.523,9.4,15.5,24.869A95.3,95.3,0,0,1,180.377,82.231Z" transform="translate(0)" fill="#ed6a6e"/>
  </g>
  <ellipse id="Ellipse_1" data-name="Ellipse 1" cx="9.555" cy="9.555" rx="9.555" ry="9.555" transform="translate(105.139 59.929) rotate(90)" fill="#ed6a6e"/>
  <ellipse id="Ellipse_2" data-name="Ellipse 2" cx="9.555" cy="9.555" rx="9.555" ry="9.555" transform="translate(105.139 102.954) rotate(90)" fill="#ed6a6e"/>
</svg>
